<svg width="597" height="513" viewBox="0 0 597 513" fill="none" xmlns="http://www.w3.org/2000/svg">
<g clip-path="url(#clip0_602_1102)">
<g filter="url(#filter0_b_602_1102)">
<rect x="280.465" y="312.249" width="316.534" height="199.78" rx="17.0766" fill="white" fill-opacity="0.2"/>
<rect x="553.549" y="394.256" width="9.66668" height="87" rx="4.83334" transform="rotate(90 553.549 394.256)" fill="#95ABBC"/>
<rect x="548.715" y="420.999" width="9.66668" height="82.1667" rx="4.83334" transform="rotate(90 548.715 420.999)" fill="#95ABBC"/>
<rect x="558.382" y="447.742" width="9.66668" height="91.8334" rx="4.83334" transform="rotate(90 558.382 447.742)" fill="#95ABBC"/>
<g clip-path="url(#clip1_602_1102)">
<path d="M418.996 425.385C418.996 452.03 397.448 473.6 370.906 473.6C344.364 473.6 322.816 452.03 322.816 425.385C322.816 398.739 344.364 377.17 370.906 377.17C397.448 377.17 418.996 398.739 418.996 425.385Z" stroke="#0A2640" stroke-width="16.183"/>
<mask id="mask0_602_1102" style="mask-type:alpha" maskUnits="userSpaceOnUse" x="280" y="348" width="90" height="147">
<path d="M369.114 420.192L347.2 348.711L280.858 432.971L316.121 494.469L369.114 420.192Z" fill="#C4C4C4"/>
</mask>
<g mask="url(#mask0_602_1102)">
<path d="M418.997 425.384C418.997 452.029 397.449 473.599 370.907 473.599C344.365 473.599 322.818 452.029 322.818 425.384C322.818 398.738 344.365 377.169 370.907 377.169C397.449 377.169 418.997 398.738 418.997 425.384Z" stroke="#0DBBFC" stroke-width="16.183"/>
</g>
<mask id="mask1_602_1102" style="mask-type:alpha" maskUnits="userSpaceOnUse" x="339" y="342" width="111" height="103">
<path d="M376.531 426.456L449.027 444.208L410.717 343.965L339.953 342.813L376.531 426.456Z" fill="#C4C4C4"/>
</mask>
<g mask="url(#mask1_602_1102)">
<path d="M346.257 466.758C323.429 453.121 315.937 423.533 329.526 400.67C343.115 377.807 372.638 370.33 395.466 383.966C418.294 397.603 425.786 427.191 412.197 450.054C398.608 472.917 369.085 480.394 346.257 466.758Z" stroke="#69E6A6" stroke-width="16.183"/>
</g>
</g>
</g>
<ellipse cx="305.721" cy="333.195" rx="5.8" ry="6.04167" fill="#FC5B00"/>
<ellipse cx="328.921" cy="333.195" rx="5.8" ry="6.04167" fill="#ECAA00"/>
<ellipse cx="352.121" cy="333.195" rx="5.8" ry="6.04167" fill="#009D10"/>
<g filter="url(#filter1_b_602_1102)">
<g clip-path="url(#clip2_602_1102)">
<rect x="0.254639" y="0.90332" width="596.745" height="280.211" rx="18.1618" fill="white" fill-opacity="0.18"/>
<rect x="100.281" y="83.2881" width="14.2305" height="65.4601" rx="7.11523" transform="rotate(90 100.281 83.2881)" fill="#95ABBC"/>
<rect x="443.791" y="83.2019" width="14.403" height="326.227" rx="7.20149" transform="rotate(90 443.791 83.2019)" fill="#8FB6D5"/>
<path d="M465.182 85.7314C465.777 85.7314 466.305 85.8252 466.764 86.0127C467.224 86.2003 467.582 86.4769 467.84 86.8426C468.103 87.2036 468.234 87.649 468.234 88.1788C468.234 88.5961 468.143 88.9618 467.96 89.2759C467.782 89.5853 467.54 89.8573 467.235 90.0917C466.931 90.3214 466.593 90.5277 466.223 90.7106C466.663 90.9122 467.06 91.1395 467.411 91.3927C467.767 91.6459 468.049 91.9436 468.255 92.2859C468.461 92.6281 468.565 93.0337 468.565 93.5025C468.565 94.0792 468.424 94.5785 468.143 95.0005C467.866 95.4178 467.477 95.7389 466.975 95.964C466.473 96.189 465.885 96.3015 465.21 96.3015C464.483 96.3015 463.864 96.1937 463.353 95.978C462.847 95.7577 462.46 95.4436 462.193 95.0357C461.93 94.6231 461.799 94.1284 461.799 93.5518C461.799 93.0782 461.9 92.668 462.101 92.321C462.303 91.9694 462.57 91.667 462.903 91.4138C463.236 91.1606 463.599 90.9473 463.993 90.7738C463.651 90.5863 463.337 90.373 463.051 90.1339C462.77 89.8948 462.545 89.6158 462.376 89.297C462.212 88.9735 462.13 88.5984 462.13 88.1717C462.13 87.6513 462.261 87.2106 462.523 86.8496C462.791 86.4839 463.154 86.2073 463.614 86.0197C464.078 85.8275 464.6 85.7314 465.182 85.7314ZM462.945 93.5588C462.945 94.0839 463.131 94.5176 463.501 94.8598C463.871 95.1974 464.432 95.3662 465.182 95.3662C465.894 95.3662 466.445 95.1974 466.834 94.8598C467.224 94.5176 467.418 94.0698 467.418 93.5166C467.418 93.1743 467.329 92.8743 467.151 92.6164C466.973 92.3539 466.72 92.1194 466.391 91.9131C466.063 91.7068 465.676 91.5193 465.231 91.3505L464.978 91.2591C464.547 91.4373 464.178 91.6365 463.874 91.8569C463.574 92.0725 463.344 92.3187 463.185 92.5953C463.025 92.8719 462.945 93.1931 462.945 93.5588ZM465.168 86.6879C464.614 86.6879 464.162 86.8215 463.81 87.0887C463.459 87.3513 463.283 87.731 463.283 88.228C463.283 88.5843 463.367 88.8867 463.536 89.1352C463.71 89.379 463.944 89.59 464.239 89.7682C464.535 89.9416 464.865 90.1034 465.231 90.2534C465.587 90.1034 465.904 89.9393 466.18 89.7611C466.457 89.5783 466.675 89.3626 466.834 89.1141C466.994 88.8656 467.074 88.5679 467.074 88.221C467.074 87.724 466.898 87.3442 466.546 87.0817C466.199 86.8191 465.74 86.6879 465.168 86.6879ZM476.821 91.0059C476.821 91.8405 476.758 92.5859 476.631 93.2423C476.504 93.8987 476.305 94.4543 476.033 94.9091C475.761 95.3639 475.41 95.7108 474.978 95.9499C474.547 96.1843 474.029 96.3015 473.424 96.3015C472.66 96.3015 472.027 96.0929 471.525 95.6756C471.028 95.2584 470.656 94.6559 470.407 93.8682C470.163 93.0759 470.041 92.1218 470.041 91.0059C470.041 89.9088 470.152 88.9664 470.372 88.1788C470.597 87.3864 470.958 86.7793 471.455 86.3573C471.952 85.9307 472.608 85.7173 473.424 85.7173C474.198 85.7173 474.835 85.9283 475.337 86.3503C475.839 86.7676 476.211 87.3724 476.455 88.1647C476.699 88.9524 476.821 89.8994 476.821 91.0059ZM471.216 91.0059C471.216 91.9624 471.289 92.7594 471.434 93.397C471.579 94.0347 471.814 94.5129 472.137 94.8317C472.465 95.1458 472.894 95.3029 473.424 95.3029C473.954 95.3029 474.381 95.1458 474.704 94.8317C475.032 94.5176 475.269 94.0417 475.414 93.4041C475.564 92.7664 475.639 91.9671 475.639 91.0059C475.639 90.0635 475.567 89.2759 475.421 88.6429C475.276 88.0053 475.042 87.5271 474.718 87.2083C474.395 86.8848 473.963 86.723 473.424 86.723C472.885 86.723 472.454 86.8848 472.13 87.2083C471.807 87.5271 471.572 88.0053 471.427 88.6429C471.286 89.2759 471.216 90.0635 471.216 91.0059ZM480.365 85.7314C481.069 85.7314 481.601 86.0127 481.962 86.5753C482.328 87.1333 482.51 87.9233 482.51 88.9453C482.51 89.9674 482.335 90.7645 481.983 91.3365C481.631 91.9038 481.092 92.1874 480.365 92.1874C479.69 92.1874 479.172 91.9038 478.811 91.3365C478.455 90.7645 478.277 89.9674 478.277 88.9453C478.277 87.9233 478.448 87.1333 478.79 86.5753C479.132 86.0127 479.657 85.7314 480.365 85.7314ZM480.365 86.5683C479.986 86.5683 479.707 86.7676 479.528 87.1661C479.35 87.5599 479.261 88.153 479.261 88.9453C479.261 89.7377 479.35 90.3355 479.528 90.7387C479.707 91.1419 479.986 91.3435 480.365 91.3435C480.759 91.3435 481.052 91.1419 481.244 90.7387C481.437 90.3355 481.533 89.7377 481.533 88.9453C481.533 88.1577 481.437 87.5646 481.244 87.1661C481.057 86.7676 480.764 86.5683 480.365 86.5683ZM486.878 85.8791L481.174 96.1609H480.147L485.851 85.8791H486.878ZM486.603 89.8526C487.302 89.8526 487.834 90.1339 488.2 90.6965C488.566 91.2544 488.748 92.0444 488.748 93.0665C488.748 94.0839 488.573 94.8786 488.221 95.4506C487.869 96.0179 487.33 96.3015 486.603 96.3015C485.924 96.3015 485.405 96.0179 485.049 95.4506C484.693 94.8786 484.515 94.0839 484.515 93.0665C484.515 92.0444 484.683 91.2544 485.021 90.6965C485.363 90.1339 485.891 89.8526 486.603 89.8526ZM486.603 90.6965C486.224 90.6965 485.945 90.8934 485.766 91.2872C485.588 91.6811 485.499 92.2742 485.499 93.0665C485.499 93.8589 485.588 94.4566 485.766 94.8598C485.945 95.2584 486.224 95.4576 486.603 95.4576C486.997 95.4576 487.29 95.2607 487.482 94.8669C487.675 94.4684 487.771 93.8682 487.771 93.0665C487.771 92.2788 487.675 91.6881 487.482 91.2943C487.295 90.8957 487.002 90.6965 486.603 90.6965Z" fill="white"/>
<rect x="100.281" y="130.458" width="14.2305" height="65.4601" rx="7.11523" transform="rotate(90 100.281 130.458)" fill="#95ABBC"/>
<rect x="214.064" y="130.732" width="13.6828" height="96.4998" rx="6.84141" transform="rotate(90 214.064 130.732)" fill="#0DBBFC"/>
<path d="M238.416 134.807C238.416 135.266 238.326 135.665 238.148 136.003C237.97 136.34 237.722 136.617 237.403 136.832C237.084 137.043 236.709 137.191 236.278 137.276V137.332C237.093 137.435 237.705 137.697 238.113 138.119C238.526 138.541 238.732 139.095 238.732 139.779C238.732 140.375 238.591 140.902 238.31 141.361C238.033 141.821 237.607 142.182 237.03 142.445C236.458 142.702 235.724 142.831 234.829 142.831C234.285 142.831 233.781 142.787 233.317 142.698C232.857 142.613 232.417 142.47 231.995 142.269V141.172C232.421 141.383 232.885 141.549 233.387 141.671C233.889 141.788 234.374 141.847 234.843 141.847C235.781 141.847 236.458 141.662 236.875 141.291C237.293 140.916 237.501 140.405 237.501 139.758C237.501 139.313 237.384 138.954 237.15 138.682C236.92 138.405 236.587 138.204 236.151 138.077C235.72 137.946 235.199 137.88 234.59 137.88H233.563V136.882H234.597C235.155 136.882 235.628 136.8 236.017 136.636C236.407 136.471 236.702 136.242 236.903 135.946C237.11 135.646 237.213 135.292 237.213 134.884C237.213 134.364 237.039 133.963 236.693 133.682C236.346 133.396 235.874 133.253 235.279 133.253C234.913 133.253 234.58 133.29 234.28 133.365C233.98 133.44 233.699 133.543 233.436 133.675C233.174 133.806 232.911 133.958 232.649 134.132L232.058 133.33C232.433 133.039 232.89 132.789 233.429 132.578C233.969 132.367 234.58 132.261 235.265 132.261C236.315 132.261 237.103 132.5 237.628 132.979C238.153 133.457 238.416 134.066 238.416 134.807ZM247.094 137.536C247.094 138.37 247.031 139.116 246.904 139.772C246.777 140.428 246.578 140.984 246.306 141.439C246.034 141.894 245.683 142.241 245.251 142.48C244.82 142.714 244.302 142.831 243.697 142.831C242.933 142.831 242.3 142.623 241.798 142.205C241.301 141.788 240.929 141.186 240.68 140.398C240.436 139.606 240.314 138.652 240.314 137.536C240.314 136.439 240.425 135.496 240.645 134.709C240.87 133.916 241.231 133.309 241.728 132.887C242.225 132.46 242.881 132.247 243.697 132.247C244.471 132.247 245.108 132.458 245.61 132.88C246.112 133.297 246.484 133.902 246.728 134.695C246.972 135.482 247.094 136.429 247.094 137.536ZM241.489 137.536C241.489 138.492 241.561 139.289 241.707 139.927C241.852 140.564 242.087 141.043 242.41 141.361C242.738 141.676 243.167 141.833 243.697 141.833C244.227 141.833 244.654 141.676 244.977 141.361C245.305 141.047 245.542 140.571 245.687 139.934C245.837 139.296 245.912 138.497 245.912 137.536C245.912 136.593 245.84 135.806 245.694 135.173C245.549 134.535 245.315 134.057 244.991 133.738C244.668 133.415 244.236 133.253 243.697 133.253C243.158 133.253 242.727 133.415 242.403 133.738C242.08 134.057 241.845 134.535 241.7 135.173C241.559 135.806 241.489 136.593 241.489 137.536ZM250.638 132.261C251.342 132.261 251.874 132.542 252.235 133.105C252.6 133.663 252.783 134.453 252.783 135.475C252.783 136.497 252.607 137.294 252.256 137.866C251.904 138.434 251.365 138.717 250.638 138.717C249.963 138.717 249.445 138.434 249.084 137.866C248.728 137.294 248.55 136.497 248.55 135.475C248.55 134.453 248.721 133.663 249.063 133.105C249.405 132.542 249.93 132.261 250.638 132.261ZM250.638 133.098C250.259 133.098 249.98 133.297 249.801 133.696C249.623 134.09 249.534 134.683 249.534 135.475C249.534 136.267 249.623 136.865 249.801 137.268C249.98 137.672 250.259 137.873 250.638 137.873C251.032 137.873 251.325 137.672 251.517 137.268C251.71 136.865 251.806 136.267 251.806 135.475C251.806 134.687 251.71 134.094 251.517 133.696C251.33 133.297 251.037 133.098 250.638 133.098ZM257.151 132.409L251.447 142.691H250.42L256.124 132.409H257.151ZM256.876 136.382C257.575 136.382 258.107 136.664 258.473 137.226C258.838 137.784 259.021 138.574 259.021 139.596C259.021 140.614 258.845 141.408 258.494 141.98C258.142 142.548 257.603 142.831 256.876 142.831C256.197 142.831 255.678 142.548 255.322 141.98C254.966 141.408 254.788 140.614 254.788 139.596C254.788 138.574 254.956 137.784 255.294 137.226C255.636 136.664 256.164 136.382 256.876 136.382ZM256.876 137.226C256.497 137.226 256.218 137.423 256.039 137.817C255.861 138.211 255.772 138.804 255.772 139.596C255.772 140.389 255.861 140.986 256.039 141.39C256.218 141.788 256.497 141.987 256.876 141.987C257.27 141.987 257.563 141.79 257.755 141.397C257.948 140.998 258.044 140.398 258.044 139.596C258.044 138.809 257.948 138.218 257.755 137.824C257.568 137.426 257.275 137.226 256.876 137.226Z" fill="white"/>
<rect x="100.281" y="177.267" width="14.2305" height="65.4601" rx="7.11523" transform="rotate(90 100.281 177.267)" fill="#95ABBC"/>
<rect x="501.403" y="177.181" width="14.403" height="383.839" rx="7.20149" transform="rotate(90 501.403 177.181)" fill="white"/>
<path d="M523.743 189.5H522.604V182.214C522.604 181.938 522.604 181.701 522.604 181.504C522.608 181.302 522.613 181.12 522.618 180.956C522.627 180.787 522.639 180.616 522.653 180.442C522.508 180.592 522.372 180.721 522.245 180.829C522.118 180.932 521.961 181.061 521.774 181.216L520.599 182.158L519.988 181.363L522.773 179.218H523.743V189.5ZM534.433 184.345C534.433 185.18 534.369 185.925 534.243 186.582C534.116 187.238 533.917 187.794 533.645 188.248C533.373 188.703 533.021 189.05 532.59 189.289C532.159 189.524 531.641 189.641 531.036 189.641C530.272 189.641 529.639 189.432 529.137 189.015C528.64 188.598 528.267 187.995 528.019 187.208C527.775 186.415 527.653 185.461 527.653 184.345C527.653 183.248 527.763 182.306 527.984 181.518C528.209 180.726 528.57 180.119 529.067 179.697C529.564 179.27 530.22 179.057 531.036 179.057C531.81 179.057 532.447 179.268 532.949 179.69C533.45 180.107 533.823 180.712 534.067 181.504C534.311 182.292 534.433 183.239 534.433 184.345ZM528.828 184.345C528.828 185.302 528.9 186.099 529.046 186.736C529.191 187.374 529.425 187.852 529.749 188.171C530.077 188.485 530.506 188.642 531.036 188.642C531.566 188.642 531.992 188.485 532.316 188.171C532.644 187.857 532.881 187.381 533.026 186.743C533.176 186.106 533.251 185.306 533.251 184.345C533.251 183.403 533.179 182.615 533.033 181.982C532.888 181.345 532.653 180.866 532.33 180.548C532.006 180.224 531.575 180.062 531.036 180.062C530.497 180.062 530.065 180.224 529.742 180.548C529.418 180.866 529.184 181.345 529.039 181.982C528.898 182.615 528.828 183.403 528.828 184.345ZM542.675 184.345C542.675 185.18 542.612 185.925 542.485 186.582C542.359 187.238 542.159 187.794 541.887 188.248C541.615 188.703 541.264 189.05 540.832 189.289C540.401 189.524 539.883 189.641 539.278 189.641C538.514 189.641 537.881 189.432 537.379 189.015C536.882 188.598 536.51 187.995 536.261 187.208C536.017 186.415 535.896 185.461 535.896 184.345C535.896 183.248 536.006 182.306 536.226 181.518C536.451 180.726 536.812 180.119 537.309 179.697C537.806 179.27 538.462 179.057 539.278 179.057C540.052 179.057 540.689 179.268 541.191 179.69C541.693 180.107 542.066 180.712 542.309 181.504C542.553 182.292 542.675 183.239 542.675 184.345ZM537.07 184.345C537.07 185.302 537.143 186.099 537.288 186.736C537.433 187.374 537.668 187.852 537.991 188.171C538.319 188.485 538.748 188.642 539.278 188.642C539.808 188.642 540.235 188.485 540.558 188.171C540.886 187.857 541.123 187.381 541.269 186.743C541.419 186.106 541.494 185.306 541.494 184.345C541.494 183.403 541.421 182.615 541.276 181.982C541.13 181.345 540.896 180.866 540.572 180.548C540.249 180.224 539.817 180.062 539.278 180.062C538.739 180.062 538.308 180.224 537.984 180.548C537.661 180.866 537.426 181.345 537.281 181.982C537.14 182.615 537.07 183.403 537.07 184.345ZM546.22 179.071C546.923 179.071 547.455 179.352 547.816 179.915C548.182 180.473 548.364 181.263 548.364 182.285C548.364 183.307 548.189 184.104 547.837 184.676C547.485 185.243 546.946 185.527 546.22 185.527C545.544 185.527 545.026 185.243 544.665 184.676C544.309 184.104 544.131 183.307 544.131 182.285C544.131 181.263 544.302 180.473 544.644 179.915C544.986 179.352 545.512 179.071 546.22 179.071ZM546.22 179.908C545.84 179.908 545.561 180.107 545.383 180.505C545.204 180.899 545.115 181.492 545.115 182.285C545.115 183.077 545.204 183.675 545.383 184.078C545.561 184.481 545.84 184.683 546.22 184.683C546.613 184.683 546.906 184.481 547.099 184.078C547.291 183.675 547.387 183.077 547.387 182.285C547.387 181.497 547.291 180.904 547.099 180.505C546.911 180.107 546.618 179.908 546.22 179.908ZM552.732 179.218L547.028 189.5H546.002L551.705 179.218H552.732ZM552.458 183.192C553.156 183.192 553.688 183.473 554.054 184.036C554.42 184.594 554.602 185.384 554.602 186.406C554.602 187.423 554.427 188.218 554.075 188.79C553.723 189.357 553.184 189.641 552.458 189.641C551.778 189.641 551.26 189.357 550.903 188.79C550.547 188.218 550.369 187.423 550.369 186.406C550.369 185.384 550.538 184.594 550.875 184.036C551.217 183.473 551.745 183.192 552.458 183.192ZM552.458 184.036C552.078 184.036 551.799 184.233 551.621 184.627C551.442 185.02 551.353 185.614 551.353 186.406C551.353 187.198 551.442 187.796 551.621 188.199C551.799 188.598 552.078 188.797 552.458 188.797C552.851 188.797 553.144 188.6 553.337 188.206C553.529 187.808 553.625 187.208 553.625 186.406C553.625 185.618 553.529 185.027 553.337 184.634C553.149 184.235 552.856 184.036 552.458 184.036Z" fill="white"/>
<rect x="100.281" y="224.077" width="14.2305" height="65.4601" rx="7.11523" transform="rotate(90 100.281 224.077)" fill="#95ABBC"/>
<rect x="424.347" y="224.351" width="13.6828" height="306.783" rx="6.84141" transform="rotate(90 424.347 224.351)" fill="#65E4A3"/>
<path d="M443.67 236.31L447.89 227.097H442.285V226.028H449.142V226.928L444.95 236.31H443.67ZM453.832 230.023C454.531 230.023 455.138 230.142 455.654 230.381C456.17 230.616 456.568 230.958 456.849 231.408C457.135 231.858 457.278 232.404 457.278 233.047C457.278 233.75 457.126 234.357 456.821 234.868C456.516 235.374 456.078 235.766 455.506 236.043C454.934 236.315 454.25 236.45 453.453 236.45C452.918 236.45 452.421 236.404 451.962 236.31C451.502 236.216 451.115 236.075 450.801 235.888V234.777C451.144 234.983 451.558 235.147 452.046 235.269C452.534 235.391 453.007 235.452 453.467 235.452C453.987 235.452 454.442 235.37 454.831 235.206C455.225 235.037 455.53 234.784 455.745 234.446C455.966 234.104 456.076 233.675 456.076 233.159C456.076 232.475 455.865 231.947 455.443 231.577C455.026 231.202 454.364 231.014 453.46 231.014C453.169 231.014 452.85 231.038 452.503 231.085C452.156 231.131 451.87 231.183 451.645 231.239L451.054 230.852L451.448 226.028H456.561V227.097H452.447L452.187 230.198C452.365 230.161 452.595 230.123 452.876 230.086C453.157 230.044 453.476 230.023 453.832 230.023ZM460.921 225.88C461.625 225.88 462.157 226.162 462.518 226.724C462.883 227.282 463.066 228.072 463.066 229.094C463.066 230.116 462.89 230.913 462.539 231.485C462.187 232.053 461.648 232.336 460.921 232.336C460.246 232.336 459.728 232.053 459.367 231.485C459.011 230.913 458.833 230.116 458.833 229.094C458.833 228.072 459.004 227.282 459.346 226.724C459.688 226.162 460.213 225.88 460.921 225.88ZM460.921 226.717C460.542 226.717 460.263 226.916 460.084 227.315C459.906 227.709 459.817 228.302 459.817 229.094C459.817 229.887 459.906 230.484 460.084 230.888C460.263 231.291 460.542 231.492 460.921 231.492C461.315 231.492 461.608 231.291 461.8 230.888C461.993 230.484 462.089 229.887 462.089 229.094C462.089 228.307 461.993 227.714 461.8 227.315C461.613 226.916 461.32 226.717 460.921 226.717ZM467.434 226.028L461.73 236.31H460.703L466.407 226.028H467.434ZM467.159 230.001C467.858 230.001 468.39 230.283 468.756 230.845C469.121 231.403 469.304 232.193 469.304 233.215C469.304 234.233 469.128 235.028 468.777 235.6C468.425 236.167 467.886 236.45 467.159 236.45C466.479 236.45 465.961 236.167 465.605 235.6C465.249 235.028 465.071 234.233 465.071 233.215C465.071 232.193 465.239 231.403 465.577 230.845C465.919 230.283 466.447 230.001 467.159 230.001ZM467.159 230.845C466.78 230.845 466.501 231.042 466.322 231.436C466.144 231.83 466.055 232.423 466.055 233.215C466.055 234.008 466.144 234.606 466.322 235.009C466.501 235.407 466.78 235.607 467.159 235.607C467.553 235.607 467.846 235.41 468.038 235.016C468.231 234.617 468.327 234.017 468.327 233.215C468.327 232.428 468.231 231.837 468.038 231.443C467.851 231.045 467.558 230.845 467.159 230.845Z" fill="white"/>
<circle cx="23.0235" cy="23.6722" r="5.69218" fill="#FC5B00"/>
<circle cx="45.792" cy="23.6722" r="5.69218" fill="#ECAA00"/>
<circle cx="68.5611" cy="23.6722" r="5.69218" fill="#009D10"/>
</g>
</g>
<g filter="url(#filter2_b_602_1102)">
<rect x="1.552" y="312.249" width="232.212" height="199.78" rx="18.1618" fill="white" fill-opacity="0.18"/>
</g>
<ellipse cx="26.8034" cy="333.921" rx="5.70332" ry="5.74906" fill="#FC5B00"/>
<ellipse cx="49.6167" cy="333.921" rx="5.70332" ry="5.74906" fill="#ECAA00"/>
<ellipse cx="72.4296" cy="333.921" rx="5.70332" ry="5.74906" fill="#009D10"/>
<rect width="11.243" height="28.114" rx="5.62151" transform="matrix(1 0 0 -1 31.3892 487.292)" fill="#0DBBFC"/>
<rect width="11.243" height="16.2933" rx="5.62151" transform="matrix(1 0 0 -1 53.8752 475.471)" fill="#0DBBFC"/>
<rect x="76.3613" y="383.781" width="11.243" height="75.3967" rx="5.62151" fill="#0DBBFC"/>
<rect x="98.8474" y="407.103" width="11.243" height="52.0748" rx="5.62151" fill="#0DBBFC"/>
<rect x="121.333" y="358.862" width="11.243" height="100.316" rx="5.62151" fill="#95ABBC"/>
<rect x="143.819" y="388.253" width="11.243" height="70.924" rx="5.62151" fill="#0DBBFC"/>
<rect x="166.306" y="374.516" width="11.243" height="84.6615" rx="5.62151" fill="#0DBBFC"/>
<rect x="188.792" y="420.521" width="11.243" height="38.6568" rx="5.62151" fill="#0DBBFC"/>
</g>
<defs>
<filter id="filter0_b_602_1102" x="119.604" y="151.387" width="638.258" height="521.503" filterUnits="userSpaceOnUse" color-interpolation-filters="sRGB">
<feFlood flood-opacity="0" result="BackgroundImageFix"/>
<feGaussianBlur in="BackgroundImageFix" stdDeviation="80.4309"/>
<feComposite in2="SourceAlpha" operator="in" result="effect1_backgroundBlur_602_1102"/>
<feBlend mode="normal" in="SourceGraphic" in2="effect1_backgroundBlur_602_1102" result="shape"/>
</filter>
<filter id="filter1_b_602_1102" x="-82.7708" y="-82.1221" width="762.796" height="446.262" filterUnits="userSpaceOnUse" color-interpolation-filters="sRGB">
<feFlood flood-opacity="0" result="BackgroundImageFix"/>
<feGaussianBlur in="BackgroundImageFix" stdDeviation="41.5127"/>
<feComposite in2="SourceAlpha" operator="in" result="effect1_backgroundBlur_602_1102"/>
<feBlend mode="normal" in="SourceGraphic" in2="effect1_backgroundBlur_602_1102" result="shape"/>
</filter>
<filter id="filter2_b_602_1102" x="-81.4734" y="229.223" width="398.262" height="365.831" filterUnits="userSpaceOnUse" color-interpolation-filters="sRGB">
<feFlood flood-opacity="0" result="BackgroundImageFix"/>
<feGaussianBlur in="BackgroundImageFix" stdDeviation="41.5127"/>
<feComposite in2="SourceAlpha" operator="in" result="effect1_backgroundBlur_602_1102"/>
<feBlend mode="normal" in="SourceGraphic" in2="effect1_backgroundBlur_602_1102" result="shape"/>
</filter>
<clipPath id="clip0_602_1102">
<rect width="596.745" height="511.125" fill="white" transform="translate(0.254883 0.903564)"/>
</clipPath>
<clipPath id="clip1_602_1102">
<rect width="112.421" height="112.421" fill="white" transform="translate(314.618 369.17)"/>
</clipPath>
<clipPath id="clip2_602_1102">
<rect x="0.254639" y="0.90332" width="596.745" height="280.211" rx="18.1618" fill="white"/>
</clipPath>
</defs>
</svg>
