<svg width="197" height="52" viewBox="0 0 197 52" fill="none" xmlns="http://www.w3.org/2000/svg">
<path d="M48.5782 45.8201V8.19255H63.4985C66.0418 8.19255 68.1236 8.70645 69.7436 9.73424C71.3811 10.7446 72.5918 12.0424 73.3757 13.6276C74.1771 15.2129 74.5777 16.8504 74.5777 18.5401C74.5777 20.6131 74.0812 22.3726 73.0883 23.8184C72.1128 25.2643 70.7801 26.2398 69.0904 26.745V25.4385C71.4595 25.9785 73.2538 27.1021 74.4732 28.8093C75.71 30.5165 76.3284 32.4588 76.3284 34.6363C76.3284 36.8661 75.9016 38.8172 75.0481 40.4895C74.1945 42.1618 72.9228 43.4683 71.2331 44.409C69.5607 45.3497 67.4877 45.8201 65.0141 45.8201H48.5782ZM54.9539 39.8885H64.2302C65.3276 39.8885 66.3119 39.6708 67.1829 39.2353C68.0539 38.7823 68.7333 38.1552 69.221 37.3539C69.7262 36.5351 69.9788 35.5683 69.9788 34.4534C69.9788 33.4431 69.761 32.5372 69.3255 31.7359C68.89 30.9346 68.2542 30.2987 67.418 29.8284C66.5819 29.3406 65.5802 29.0967 64.4131 29.0967H54.9539V39.8885ZM54.9539 23.2174H63.4201C64.326 23.2174 65.136 23.0432 65.8502 22.6948C66.5645 22.3464 67.1306 21.8325 67.5487 21.1531C67.9668 20.4738 68.1758 19.6376 68.1758 18.6446C68.1758 17.3381 67.7577 16.2494 66.9216 15.3784C66.0854 14.5074 64.9182 14.0719 63.4201 14.0719H54.9539V23.2174ZM94.0112 46.604C91.1892 46.604 88.7242 45.9681 86.6164 44.6965C84.5086 43.4248 82.8711 41.6741 81.7039 39.4443C80.5542 37.1971 79.9793 34.6189 79.9793 31.7098C79.9793 28.7483 80.5716 26.1527 81.7562 23.9229C82.9407 21.6932 84.587 19.9512 86.6948 18.6969C88.8026 17.4427 91.2414 16.8155 94.0112 16.8155C96.8507 16.8155 99.3244 17.4514 101.432 18.723C103.54 19.9947 105.178 21.7541 106.345 24.0013C107.512 26.2311 108.095 28.8006 108.095 31.7098C108.095 34.6363 107.503 37.2232 106.319 39.4704C105.151 41.7002 103.514 43.4509 101.406 44.7226C99.2983 45.9768 96.8333 46.604 94.0112 46.604ZM94.0112 40.6985C96.5198 40.6985 98.3837 39.8624 99.6031 38.19C100.823 36.5177 101.432 34.3576 101.432 31.7098C101.432 28.9748 100.814 26.7973 99.577 25.1772C98.3402 23.5397 96.4849 22.721 94.0112 22.721C92.3215 22.721 90.9279 23.1042 89.8304 23.8707C88.7504 24.6198 87.949 25.6737 87.4264 27.0324C86.9038 28.3738 86.6425 29.9329 86.6425 31.7098C86.6425 34.4447 87.2609 36.6309 88.4978 38.2684C89.752 39.8885 91.5898 40.6985 94.0112 40.6985ZM114.375 45.8201V7.40865H120.673V45.8201H114.375ZM139.814 46.604C137.219 46.604 134.954 45.9507 133.02 44.6442C131.087 43.3377 129.589 41.5608 128.526 39.3136C127.463 37.0664 126.932 34.5318 126.932 31.7098C126.932 28.8528 127.463 26.3095 128.526 24.0797C129.606 21.8325 131.13 20.0644 133.099 18.7753C135.067 17.4688 137.384 16.8155 140.049 16.8155C142.732 16.8155 144.979 17.4688 146.791 18.7753C148.62 20.0644 150.005 21.8325 150.946 24.0797C151.886 26.3269 152.357 28.8703 152.357 31.7098C152.357 34.5144 151.886 37.049 150.946 39.3136C150.005 41.5608 148.603 43.3377 146.739 44.6442C144.875 45.9507 142.567 46.604 139.814 46.604ZM140.781 40.9598C142.471 40.9598 143.83 40.5766 144.857 39.8101C145.903 39.0262 146.66 37.9375 147.131 36.5438C147.618 35.1502 147.862 33.5389 147.862 31.7098C147.862 29.8632 147.618 28.2519 147.131 26.8757C146.66 25.482 145.92 24.402 144.91 23.6355C143.899 22.8516 142.593 22.4597 140.99 22.4597C139.3 22.4597 137.907 22.8777 136.809 23.7139C135.712 24.5327 134.902 25.6475 134.379 27.0586C133.857 28.4522 133.595 30.0026 133.595 31.7098C133.595 33.4343 133.848 35.0022 134.353 36.4132C134.876 37.8068 135.668 38.913 136.731 39.7317C137.794 40.5505 139.144 40.9598 140.781 40.9598ZM147.862 45.8201V26.0134H147.078V8.19255H153.428V45.8201H147.862ZM173.218 46.604C170.396 46.604 167.931 45.9681 165.824 44.6965C163.716 43.4248 162.078 41.6741 160.911 39.4443C159.761 37.1971 159.187 34.6189 159.187 31.7098C159.187 28.7483 159.779 26.1527 160.963 23.9229C162.148 21.6932 163.794 19.9512 165.902 18.6969C168.01 17.4427 170.449 16.8155 173.218 16.8155C176.058 16.8155 178.532 17.4514 180.639 18.723C182.747 19.9947 184.385 21.7541 185.552 24.0013C186.719 26.2311 187.303 28.8006 187.303 31.7098C187.303 34.6363 186.71 37.2232 185.526 39.4704C184.359 41.7002 182.721 43.4509 180.613 44.7226C178.505 45.9768 176.041 46.604 173.218 46.604ZM173.218 40.6985C175.727 40.6985 177.591 39.8624 178.81 38.19C180.03 36.5177 180.639 34.3576 180.639 31.7098C180.639 28.9748 180.021 26.7973 178.784 25.1772C177.547 23.5397 175.692 22.721 173.218 22.721C171.529 22.721 170.135 23.1042 169.038 23.8707C167.958 24.6198 167.156 25.6737 166.634 27.0324C166.111 28.3738 165.85 29.9329 165.85 31.7098C165.85 34.4447 166.468 36.6309 167.705 38.2684C168.959 39.8885 170.797 40.6985 173.218 40.6985Z" fill="white"/>
<path d="M0 26.1951H20.6236C26.5243 26.1951 31.3078 30.9786 31.3078 36.8793V36.8793C31.3078 42.78 26.5243 47.5635 20.6236 47.5635H0V26.1951Z" fill="#65E4A3"/>
<path d="M0 7.4978H13.7662C18.1917 7.4978 21.7793 11.0854 21.7793 15.511V15.511C21.7793 19.9365 18.1917 23.5241 13.7662 23.5241H0V7.4978Z" fill="#65E4A3"/>
</svg>
