<svg width="176" height="46" viewBox="0 0 176 46" fill="none" xmlns="http://www.w3.org/2000/svg">
<path d="M43.3929 37.0723V5.52157H55.9036C58.0362 5.52157 59.7817 5.95247 61.1401 6.81427C62.5132 7.66147 63.5283 8.74967 64.1857 10.0789C64.8576 11.4081 65.1935 12.7812 65.1935 14.198C65.1935 15.9362 64.7772 17.4115 63.9446 18.6239C63.1267 19.8362 62.0092 20.6542 60.5924 21.0778V19.9823C62.5789 20.4351 64.0834 21.3773 65.1059 22.8087C66.143 24.2402 66.6615 25.8688 66.6615 27.6947C66.6615 29.5644 66.3036 31.2003 65.5879 32.6026C64.8722 34.0048 63.8059 35.1003 62.389 35.8891C60.9868 36.6779 59.2486 37.0723 57.1744 37.0723H43.3929ZM48.739 32.0986H56.5171C57.4373 32.0986 58.2626 31.9161 58.9929 31.5509C59.7233 31.1711 60.2929 30.6453 60.7019 29.9734C61.1255 29.2868 61.3373 28.4762 61.3373 27.5413C61.3373 26.6941 61.1547 25.9346 60.7896 25.2627C60.4244 24.5908 59.8913 24.0576 59.1901 23.6632C58.489 23.2542 57.6491 23.0497 56.6705 23.0497H48.739V32.0986ZM48.739 18.1199H55.8379C56.5974 18.1199 57.2766 17.9739 57.8755 17.6817C58.4744 17.3896 58.9491 16.9587 59.2997 16.389C59.6502 15.8194 59.8255 15.1182 59.8255 14.2857C59.8255 13.1901 59.475 12.2772 58.7738 11.5469C58.0727 10.8165 57.094 10.4514 55.8379 10.4514H48.739V18.1199ZM81.4886 37.7296C79.1222 37.7296 77.0554 37.1964 75.288 36.1301C73.5205 35.0638 72.1475 33.5958 71.1688 31.7262C70.2048 29.8419 69.7228 27.6801 69.7228 25.2408C69.7228 22.7576 70.2194 20.5812 71.2127 18.7115C72.2059 16.8418 73.5863 15.3812 75.3537 14.3295C77.1211 13.2778 79.1661 12.7519 81.4886 12.7519C83.8695 12.7519 85.9436 13.2851 87.711 14.3514C89.4785 15.4177 90.8515 16.893 91.8302 18.7772C92.8088 20.6469 93.2982 22.8014 93.2982 25.2408C93.2982 27.6947 92.8015 29.8638 91.8083 31.7481C90.8296 33.6178 89.4566 35.0857 87.6891 36.152C85.9217 37.2037 83.8549 37.7296 81.4886 37.7296ZM81.4886 32.7779C83.5919 32.7779 85.1549 32.0767 86.1773 30.6745C87.1998 29.2722 87.711 27.461 87.711 25.2408C87.711 22.9475 87.1925 21.1216 86.1554 19.7632C85.1183 18.3902 83.5627 17.7036 81.4886 17.7036C80.0717 17.7036 78.9031 18.025 77.9829 18.6677C77.0773 19.2958 76.4054 20.1795 75.9672 21.3188C75.529 22.4436 75.3099 23.7509 75.3099 25.2408C75.3099 27.534 75.8284 29.3672 76.8655 30.7402C77.9172 32.0986 79.4582 32.7779 81.4886 32.7779ZM98.5638 37.0723V4.86427H103.844V37.0723H98.5638ZM119.894 37.7296C117.718 37.7296 115.819 37.1818 114.198 36.0863C112.576 34.9908 111.32 33.5009 110.429 31.6166C109.538 29.7323 109.093 27.6071 109.093 25.2408C109.093 22.8452 109.538 20.7126 110.429 18.843C111.335 16.9587 112.613 15.4761 114.263 14.3952C115.914 13.2997 117.857 12.7519 120.092 12.7519C122.341 12.7519 124.225 13.2997 125.744 14.3952C127.278 15.4761 128.439 16.9587 129.228 18.843C130.017 20.7273 130.411 22.8598 130.411 25.2408C130.411 27.5925 130.017 29.7177 129.228 31.6166C128.439 33.5009 127.264 34.9908 125.701 36.0863C124.138 37.1818 122.202 37.7296 119.894 37.7296ZM120.705 32.997C122.122 32.997 123.261 32.6756 124.123 32.0329C124.999 31.3756 125.635 30.4627 126.029 29.2941C126.438 28.1256 126.643 26.7745 126.643 25.2408C126.643 23.6924 126.438 22.3413 126.029 21.1874C125.635 20.0188 125.014 19.1132 124.167 18.4705C123.32 17.8132 122.224 17.4845 120.88 17.4845C119.463 17.4845 118.295 17.8351 117.375 18.5362C116.454 19.2228 115.775 20.1576 115.337 21.3407C114.899 22.5093 114.68 23.8093 114.68 25.2408C114.68 26.6868 114.892 28.0014 115.315 29.1846C115.753 30.3531 116.418 31.2807 117.309 31.9672C118.2 32.6537 119.332 32.997 120.705 32.997ZM126.643 37.0723V20.4643H125.985V5.52157H131.31V37.0723H126.643ZM147.904 37.7296C145.538 37.7296 143.471 37.1964 141.703 36.1301C139.936 35.0638 138.563 33.5958 137.584 31.7262C136.62 29.8419 136.138 27.6801 136.138 25.2408C136.138 22.7576 136.635 20.5812 137.628 18.7115C138.621 16.8418 140.002 15.3812 141.769 14.3295C143.536 13.2778 145.581 12.7519 147.904 12.7519C150.285 12.7519 152.359 13.2851 154.126 14.3514C155.894 15.4177 157.267 16.893 158.245 18.7772C159.224 20.6469 159.713 22.8014 159.713 25.2408C159.713 27.6947 159.217 29.8638 158.224 31.7481C157.245 33.6178 155.872 35.0857 154.104 36.152C152.337 37.2037 150.27 37.7296 147.904 37.7296ZM147.904 32.7779C150.007 32.7779 151.57 32.0767 152.593 30.6745C153.615 29.2722 154.126 27.461 154.126 25.2408C154.126 22.9475 153.608 21.1216 152.571 19.7632C151.534 18.3902 149.978 17.7036 147.904 17.7036C146.487 17.7036 145.318 18.025 144.398 18.6677C143.493 19.2958 142.821 20.1795 142.382 21.3188C141.944 22.4436 141.725 23.7509 141.725 25.2408C141.725 27.534 142.244 29.3672 143.281 30.7402C144.332 32.0986 145.874 32.7779 147.904 32.7779Z" fill="white"/>
<path d="M0.173584 20.4475H17.474C23.3748 20.4475 28.1583 25.231 28.1583 31.1317C28.1583 37.0325 23.3748 41.8159 17.474 41.8159H0.173584V20.4475Z" fill="white"/>
<path d="M0.173584 1.75H11.628C16.0536 1.75 19.6412 5.33761 19.6412 9.76316C19.6412 14.1887 16.0536 17.7763 11.628 17.7763H0.173584V1.75Z" fill="white"/>
</svg>
