<svg width="178" height="46" viewBox="0 0 178 46" fill="none" xmlns="http://www.w3.org/2000/svg">
<g clip-path="url(#clip0_602_1089)">
<g clip-path="url(#clip1_602_1089)">
<path d="M12.1409 3.44915C12.0957 3.36197 12.0682 3.26675 12.0598 3.16892C12.0514 3.07109 12.0624 2.97257 12.0921 2.87899C12.1219 2.78541 12.1697 2.6986 12.233 2.62352C12.2963 2.54844 12.3737 2.48656 12.4609 2.44142C15.1365 1.08085 18.1086 0.407531 21.1093 0.482154C24.11 0.556777 27.0449 1.377 29.6495 2.86888C29.735 2.91801 29.8098 2.98357 29.8698 3.06177C29.9298 3.13998 29.9737 3.22929 29.9989 3.32455C30.0242 3.4198 30.0304 3.51912 30.0171 3.61678C30.0038 3.71443 29.9713 3.80848 29.9215 3.89351L21.3168 18.6609C21.2512 18.774 21.1569 18.8678 21.0435 18.933C20.9302 18.9981 20.8016 19.0323 20.6709 19.0321H20.6519C20.5179 19.0285 20.3874 18.9892 20.2738 18.9181C20.1602 18.847 20.0677 18.7469 20.0059 18.628L12.1409 3.44915ZM20.2093 22.9705V22.969L12.344 7.79015C12.2527 7.61442 12.0955 7.48197 11.9069 7.42171C11.7182 7.36145 11.5134 7.37827 11.3371 7.46851C9.24088 8.54333 7.37759 10.0215 5.85416 11.8183C4.33072 13.6151 3.17712 15.695 2.45956 17.9387C1.74201 20.1825 1.47463 22.5458 1.67278 24.8931C1.87092 27.2405 2.53069 29.5256 3.61421 31.6173C4.69773 33.709 6.18367 35.5661 7.98674 37.082C9.78982 38.598 11.8745 39.7429 14.1212 40.4512C16.3679 41.1594 18.7324 41.4169 21.0788 41.209C23.4253 41.0011 25.7077 40.3319 27.7948 39.2397C27.9701 39.1479 28.102 38.9905 28.1617 38.8018C28.2214 38.6131 28.2041 38.4085 28.1135 38.2326L20.2093 22.9705ZM29.4289 37.3176L29.4888 37.4374C29.5792 37.6139 29.7349 37.7481 29.9228 37.8115C29.9999 37.8371 30.0813 37.8473 30.1623 37.8415C30.2807 37.8382 30.3975 37.8128 30.5065 37.7666C30.779 37.6316 31.0438 37.4817 31.2998 37.3176C32.061 36.876 32.7866 36.3756 33.47 35.8209H28.6506L29.4289 37.3176ZM27.8724 34.3242H35.1014C35.5662 33.8572 35.9964 33.357 36.3885 32.8276H27.0941L27.8724 34.3242ZM26.3308 31.3309H37.4512C37.7578 30.8504 38.0327 30.3504 38.2744 29.8342H25.5525L26.3308 31.3309ZM24.7742 28.3375H38.9329C39.1315 27.8489 39.3014 27.3492 39.4418 26.8408H23.9959L24.7742 28.3375ZM23.2176 25.3441H39.816C39.9058 24.8502 39.9806 24.3563 40.0255 23.8474H22.4543L23.2176 25.3441ZM31.2399 6.42592C31.1559 6.37368 31.0617 6.33998 30.9636 6.32707C30.8655 6.31417 30.7658 6.32235 30.6712 6.35108C30.5742 6.37322 30.4829 6.41525 30.4031 6.47451C30.3232 6.53376 30.2565 6.60895 30.2072 6.69532L29.8031 7.3838H32.6917C32.2253 7.03877 31.7406 6.71902 31.2399 6.42592ZM34.5027 8.88049H28.935L28.0669 10.3772H35.9246C35.4817 9.84961 35.0069 9.34977 34.5027 8.88049ZM37.0471 11.8739H27.1839L26.3158 13.3706H37.9601C37.69 12.8516 37.385 12.3515 37.0471 11.8739ZM38.6785 14.8673H25.4477L24.5796 16.3639H39.2622C39.0963 15.8543 38.9014 15.3546 38.6785 14.8673ZM39.6813 17.8606H23.6966L22.8285 19.3573H39.9507C39.8912 18.8534 39.8013 18.3536 39.6813 17.8606ZM40.1003 20.854H21.9604L21.6012 21.4677C21.5364 21.5757 21.5009 21.6989 21.4982 21.8249C21.4956 21.9509 21.526 22.0754 21.5863 22.1861L21.6761 22.3507H40.1303C40.1452 22.201 40.1452 22.0364 40.1452 21.8867C40.1452 21.5425 40.1303 21.1983 40.1003 20.854Z" fill="white"/>
<path d="M11.7971 6.72859C11.5227 6.20873 10.877 6.00719 10.3733 6.31022C6.38598 8.7092 3.40697 12.4984 2.02534 16.9679C0.538648 21.7772 1.02334 26.9801 3.3728 31.4321C5.72226 35.8841 9.74402 39.2204 14.5534 40.7071C19.0228 42.0887 23.8321 41.7677 28.0628 39.8298C28.5972 39.585 28.7952 38.9382 28.5209 38.4183L20.159 22.5735L11.7971 6.72859Z" fill="white"/>
</g>
<path d="M66.8496 7.36695C68.9297 7.36695 70.7016 7.70079 72.1653 8.36848C73.6291 9.03616 74.7462 9.99916 75.5166 11.2575C76.287 12.5158 76.6722 14.0438 76.6722 15.8414C76.6722 17.639 76.287 19.167 75.5166 20.4253C74.7462 21.6836 73.6291 22.6466 72.1653 23.3143C70.7016 23.982 68.9297 24.3158 66.8496 24.3158H61.8034V32.7903H55.1779V7.36695H66.8496ZM65.8095 19.3467C67.1962 19.3467 68.2363 19.0643 68.9297 18.4993C69.6487 17.9086 70.0082 17.0227 70.0082 15.8414C70.0082 14.6601 69.6487 13.787 68.9297 13.222C68.2363 12.6314 67.1962 12.3361 65.8095 12.3361H61.8034V19.3467H65.8095ZM80.446 32.7903V13.5302H86.224L86.4937 17.6904C86.9816 16.2523 87.7006 15.1352 88.6508 14.3391C89.6266 13.543 90.8593 13.145 92.3487 13.145C92.8367 13.145 93.2475 13.1835 93.5814 13.2605C93.9409 13.3376 94.2234 13.4403 94.4288 13.5687L93.774 18.9615C93.5172 18.8588 93.1833 18.7818 92.7725 18.7304C92.3873 18.6534 91.9122 18.6148 91.3472 18.6148C90.5768 18.6148 89.8578 18.7818 89.1901 19.1156C88.5224 19.4495 87.9831 19.9502 87.5722 20.6179C87.187 21.2599 86.9944 22.0817 86.9944 23.0832V32.7903H80.446ZM106.171 33.1755C104.039 33.1755 102.19 32.7774 100.624 31.9814C99.0831 31.1853 97.889 30.0425 97.0416 28.5531C96.1941 27.0636 95.7704 25.266 95.7704 23.1602C95.7704 21.0545 96.1941 19.2569 97.0416 17.7674C97.889 16.278 99.0703 15.1352 100.585 14.3391C102.126 13.543 103.885 13.145 105.863 13.145C107.891 13.145 109.612 13.543 111.024 14.3391C112.462 15.1095 113.554 16.1881 114.299 17.5748C115.043 18.9359 115.416 20.5023 115.416 22.2743C115.416 22.7365 115.403 23.1988 115.377 23.661C115.352 24.1232 115.313 24.5084 115.262 24.8166H100.008V21.3113H112.373L109.252 22.5054C109.252 20.9646 108.97 19.7833 108.405 18.9615C107.866 18.1398 107.018 17.7289 105.863 17.7289C105.041 17.7289 104.335 17.9215 103.744 18.3067C103.179 18.6919 102.743 19.2954 102.434 20.1171C102.152 20.9389 102.011 21.9918 102.011 23.2758C102.011 24.5341 102.178 25.5613 102.511 26.3574C102.845 27.1278 103.32 27.6928 103.937 28.0523C104.553 28.3861 105.298 28.5531 106.171 28.5531C107.147 28.5531 107.917 28.3605 108.482 27.9753C109.073 27.5901 109.509 27.0508 109.792 26.3574L115.031 28.0908C114.671 29.1951 114.042 30.1324 113.143 30.9028C112.27 31.6475 111.217 32.2125 109.984 32.5977C108.777 32.9829 107.506 33.1755 106.171 33.1755ZM127.168 33.1755C125.242 33.1755 123.445 32.8673 121.775 32.251C120.132 31.609 118.771 30.6974 117.692 29.5161L120.774 25.8952C121.416 26.7169 122.263 27.4103 123.316 27.9753C124.395 28.5145 125.589 28.7842 126.899 28.7842C127.695 28.7842 128.35 28.6686 128.863 28.4375C129.377 28.2064 129.634 27.8469 129.634 27.3589C129.634 26.9994 129.505 26.7169 129.248 26.5115C128.992 26.2804 128.478 26.0878 127.708 25.9337L125.011 25.3944C122.597 24.9065 120.877 24.1874 119.849 23.2373C118.848 22.2614 118.347 20.9903 118.347 19.4238C118.347 18.3709 118.668 17.3694 119.31 16.4192C119.952 15.4434 120.941 14.6601 122.276 14.0695C123.612 13.4531 125.319 13.145 127.399 13.145C129.351 13.145 131.072 13.4275 132.561 13.9924C134.051 14.5574 135.232 15.3792 136.105 16.4577L132.985 20.0016C132.369 19.2312 131.572 18.6277 130.597 18.1911C129.621 17.7546 128.645 17.5363 127.669 17.5363C127.053 17.5363 126.526 17.6005 126.09 17.7289C125.679 17.8316 125.371 17.9857 125.165 18.1911C124.96 18.3966 124.857 18.6534 124.857 18.9615C124.857 19.2954 125.011 19.5907 125.319 19.8475C125.653 20.0786 126.257 20.2841 127.13 20.4638L130.635 21.1572C132.612 21.5167 134.038 22.1715 134.911 23.1217C135.784 24.0719 136.221 25.2146 136.221 26.55C136.221 27.8083 135.887 28.9383 135.219 29.9398C134.551 30.9413 133.55 31.7374 132.214 32.328C130.879 32.893 129.197 33.1755 127.168 33.1755ZM147.669 7.40547V25.9337C147.669 26.8582 147.887 27.5259 148.324 27.9367C148.786 28.3219 149.415 28.5145 150.211 28.5145C150.828 28.5145 151.354 28.4503 151.791 28.3219C152.253 28.1679 152.664 27.9496 153.023 27.6671L153.717 31.7117C153.075 32.174 152.266 32.5335 151.29 32.7903C150.314 33.0471 149.312 33.1755 148.285 33.1755C146.821 33.1755 145.55 32.97 144.472 32.5592C143.419 32.1483 142.597 31.4934 142.006 30.5946C141.441 29.6958 141.146 28.5017 141.12 27.0123V9.21592L147.669 7.40547ZM153.408 13.5302V18.1911H137.808V13.5302H153.408ZM165.601 13.145C167.63 13.145 169.402 13.543 170.917 14.3391C172.458 15.1095 173.652 16.2523 174.499 17.7674C175.372 19.2569 175.809 21.0545 175.809 23.1602C175.809 25.266 175.372 27.0765 174.499 28.5916C173.652 30.081 172.458 31.2238 170.917 32.0199C169.402 32.7903 167.63 33.1755 165.601 33.1755C163.624 33.1755 161.864 32.7903 160.324 32.0199C158.783 31.2238 157.576 30.081 156.703 28.5916C155.855 27.0765 155.432 25.266 155.432 23.1602C155.432 21.0545 155.855 19.2569 156.703 17.7674C157.576 16.2523 158.783 15.1095 160.324 14.3391C161.864 13.543 163.624 13.145 165.601 13.145ZM165.601 17.8059C164.856 17.8059 164.214 17.9857 163.675 18.3452C163.136 18.7047 162.725 19.2825 162.442 20.0786C162.16 20.8747 162.019 21.9019 162.019 23.1602C162.019 24.4186 162.16 25.4458 162.442 26.2418C162.725 27.0123 163.136 27.5901 163.675 27.9753C164.214 28.3348 164.856 28.5145 165.601 28.5145C166.371 28.5145 167.026 28.3348 167.565 27.9753C168.105 27.5901 168.516 27.0123 168.798 26.2418C169.081 25.4458 169.222 24.4186 169.222 23.1602C169.222 21.9019 169.081 20.8747 168.798 20.0786C168.516 19.2825 168.105 18.7047 167.565 18.3452C167.026 17.9857 166.371 17.8059 165.601 17.8059Z" fill="white"/>
</g>
<defs>
<clipPath id="clip0_602_1089">
<rect width="177.037" height="49.8925" fill="white" transform="translate(0.281006 -4.83472)"/>
</clipPath>
<clipPath id="clip1_602_1089">
<rect width="39.5669" height="42.0924" fill="white" transform="translate(0.841553 -0.190674)"/>
</clipPath>
</defs>
</svg>
